<?xml version="1.0" encoding="utf-8"?>
<!-- Generator: Adobe Illustrator 19.0.1, SVG Export Plug-In . SVG Version: 6.00 Build 0)  -->
<svg version="1.1" id="Layer_1" xmlns="http://www.w3.org/2000/svg" xmlns:xlink="http://www.w3.org/1999/xlink" x="0px" y="0px"
	 viewBox="-2413 2885.5 28 28" style="enable-background:new -2413 2885.5 28 28;" xml:space="preserve">
<style type="text/css">
	.st0{fill:#00A721;}
	.st1{fill:#0038BD;}
</style>
<circle class="st0" cx="-2399" cy="2899.5" r="13.9"/>
<g transform="translate(-150 -200)">
	<g>
		<path class="st1" d="M-2246.2,3085.8c-0.9-0.2-1.9-0.3-2.8-0.3s-1.9,0.1-2.8,0.3c-6.4,1.3-11.2,7-11.2,13.7c0,7.7,6.3,14,14,14
			s14-6.3,14-14C-2235,3092.7-2239.8,3087.1-2246.2,3085.8z M-2240.5,3109.3c-0.4,0.2-0.9,0.2-1.2-0.3c-0.8-1.1-3.1,0.8-4,0.2
			s0.5-0.6-0.2-2.2s1.7-1,2.5-1.4c0.8-0.4,1.9-2.5,2.5-1.7c0.6,0.8,1.5,1.4,1.5,0.5c0.1-0.9,1.2-2.1,1.2,0.2c0,1-0.1,1.8-0.2,2.4
			C-2238.9,3107.8-2239.7,3108.6-2240.5,3109.3z M-2262,3099.5c0-7.2,5.8-13,13-13c2.6,0,5.1,0.8,7.2,2.2c-0.2,0.6-0.7,1.1-1,1.4
			c-0.5,0.5-2.2,0.5-1.7,1.1c0.5,0.5,0.3,2.7-0.5,3c-0.8,0.3-2.4,1.5-1.9,2.1c0.5,0.6,1.6,2.3-0.8,1.4c-2.4-0.9,0.7,3.8,0,3.5
			c-1.6-0.6-2.2-2-1.9-3c0.3-0.9-0.8-1.4-0.8-1.9c0-1-2.2-1.3-3-0.7c-0.8,0.6-0.5,3.4-1.6,3c-1.2-0.4-0.6-3.8-2.2-4.7
			c-1.6-0.9-1.5,1.9-3.2,3.6c-1.1,1.1-1.1,3.9-1,5.9C-2261.8,3102.1-2262,3100.8-2262,3099.5z M-2240.7,3089.5
			c0.1,0.8,0.5,2.3-0.3,2.9c-0.6,0.5-3.2-0.2-2-0.7c1.1-0.5,1.8-1.1,1.8-2.6C-2241.1,3089.2-2240.9,3089.4-2240.7,3089.5z
			 M-2240.1,3100.8c0.2-1.4,2.2,0.1,2.9,0.9C-2236.4,3102.5-2240.3,3102.1-2240.1,3100.8z M-2244.2,3101c0.4,0.6-0.4,0.9-1,0.7
			c-0.6-0.2-1.6,0.1-1.5-0.9c0,0,0.6-0.9,1.3-1.4c0.8-0.5,1.6-1.1,1.6-0.3C-2243.8,3099.8-2244.6,3100.4-2244.2,3101z
			 M-2248.3,3103.6c-2.1-0.6-2.1-1.1-2.3-1.7c-0.2-0.6-0.9-1.7-0.5-2c0.4-0.3,2.1,1.2,2.7,2c0.6,0.8,0.9,0.6,2.3,1
			C-2245.3,3103.2-2246.2,3104.2-2248.3,3103.6z"/>
	</g>
</g>
</svg>
